<svg width="47" height="41" viewBox="0 0 47 41" fill="none" xmlns="http://www.w3.org/2000/svg">
<path d="M39.2667 30.5726C39.2346 30.5405 39.1705 30.5405 39.1384 30.5085C39.1063 30.4764 39.0742 30.4443 39.1063 30.4122C39.1705 30.0914 39.2346 29.8027 39.2988 29.4819C39.3629 29.129 39.4271 28.8082 39.3629 28.4553C39.1384 27.2683 38.0476 26.5305 36.8927 26.723C36.1228 26.8513 35.5454 27.3004 35.2887 28.0704C35.1283 28.5195 35.0642 29.0007 34.9679 29.4819C34.9358 29.5781 34.9038 29.6423 34.8075 29.6423C34.5188 29.6423 34.4226 29.7385 34.3584 29.9631C34.198 30.7972 34.0376 31.5992 33.8451 32.4333C33.7809 32.7862 33.813 32.8824 34.0376 33.0107C35.1283 33.6844 36.2832 34.0373 37.5664 34.0373C37.9514 34.0052 38.3364 33.9411 38.7213 33.909C38.8817 33.8769 38.978 33.7807 38.978 33.6523C39.1705 32.7862 39.3309 31.92 39.5233 31.0538C39.5233 30.7651 39.4913 30.7009 39.2667 30.5726ZM37.0211 31.7275C36.9248 31.7917 36.9248 31.8558 36.8927 31.9521C36.8286 32.2087 36.7965 32.4333 36.7644 32.6899C36.7323 32.8824 36.604 32.9787 36.4115 32.9466C36.2511 32.9145 36.187 32.7541 36.2191 32.5616C36.2832 32.305 36.3474 32.0162 36.3795 31.7596C36.3795 31.6954 36.3474 31.6313 36.3153 31.5671C36.0907 31.2463 36.2191 30.8293 36.604 30.701C36.6682 30.6689 36.7003 30.6689 36.7644 30.6689C37.0211 30.6689 37.2456 30.8293 37.3098 31.0859C37.3739 31.3426 37.2777 31.5992 37.0211 31.7275ZM38.5288 29.4177C38.4968 29.6423 38.4326 29.8669 38.4005 30.0914C37.0852 29.6423 37.0852 29.6423 35.7058 29.5461C35.7379 29.3215 35.802 29.0969 35.8341 28.8724C35.8662 28.712 35.8983 28.5516 35.9303 28.3912C36.1228 27.8458 36.5078 27.525 37.0852 27.4287C37.8231 27.3004 38.5288 27.91 38.6251 28.5836C38.6572 28.9044 38.593 29.1611 38.5288 29.4177ZM21.9754 36.4113C22.7453 36.4113 23.5473 36.3792 24.3172 36.2829C24.7343 36.2188 25.1513 36.1867 25.6004 36.1225C26.2741 35.9942 26.9799 35.8659 27.6536 35.6734C29.4822 35.2243 31.2145 34.5506 32.8506 33.6523C33.0431 33.5561 33.2677 33.4278 33.4601 33.3315C33.3639 33.1711 33.2677 33.0107 33.2035 32.8824C33.1714 32.8824 33.1393 32.9145 33.1073 32.9466C32.0807 33.524 30.99 34.0373 29.8992 34.4223C28.9047 34.8072 27.8782 35.096 26.8516 35.3205C26.21 35.4488 25.5363 35.5772 24.8947 35.6734C24.5097 35.7376 24.1568 35.7697 23.7719 35.8017C23.2907 35.8338 22.8094 35.898 22.3603 35.898C21.6866 35.898 21.0129 35.8659 20.3393 35.8659C20.0185 35.8659 19.6976 35.8338 19.3448 35.8017C18.9598 35.7697 18.5748 35.7055 18.1899 35.6413C17.7087 35.5451 17.2275 35.4809 16.7462 35.3847C16.4254 35.3205 16.1046 35.2243 15.7838 35.1601C15.6234 35.128 15.463 35.1922 15.431 35.3526C15.3989 35.513 15.4951 35.6413 15.6555 35.7055C16.5858 35.9621 17.5483 36.1546 18.5107 36.2829C19.1202 36.3792 19.7618 36.4433 20.3713 36.4754C20.8846 36.4433 21.43 36.4113 21.9754 36.4113ZM33.5564 34.3581C33.7809 34.1656 33.9734 33.9732 34.198 33.7807C34.0055 33.6844 33.8451 33.5882 33.6847 33.4919C33.011 34.1015 32.2732 34.6789 31.5353 35.1922C29.418 36.6679 27.1403 37.7586 24.6701 38.4323C23.5152 38.7531 22.3282 39.0098 21.1413 39.1381C20.6601 39.2023 20.1789 39.2343 19.7297 39.2664C19.5693 39.2664 19.441 39.3947 19.441 39.5231C19.441 39.6514 19.5693 39.8118 19.7297 39.7797C20.0826 39.7476 20.4676 39.7155 20.8205 39.6835C21.2696 39.6514 21.7187 39.5872 22.1358 39.5231C22.8736 39.3947 23.5794 39.2343 24.3172 39.0739C26.21 38.5927 28.0065 37.887 29.7067 36.9566C31.0541 36.2188 32.3373 35.3526 33.5564 34.3581ZM38.593 22.8092C38.5288 23.2904 38.4968 23.8037 38.4005 24.2849C38.3364 24.7982 38.208 25.2794 38.1439 25.7926C38.1118 25.921 38.0797 26.0814 38.0476 26.1776C38.2401 26.2418 38.4005 26.338 38.5609 26.4022L38.593 26.3701C38.7534 25.6002 38.9138 24.8302 39.0101 24.0282C39.0421 23.6433 39.1063 23.2262 39.1384 22.8413C39.1705 22.4563 39.2025 22.0713 39.2025 21.7184C39.2025 20.9164 39.2025 20.1144 39.1705 19.3445C39.1384 18.8312 39.0742 18.35 39.0101 17.8367C38.9459 17.4197 38.9138 17.0026 38.8176 16.5856C38.6572 15.8156 38.4647 15.0457 38.2722 14.2758C38.2401 14.0833 38.0797 13.9871 37.9514 14.0512C37.791 14.1154 37.7268 14.2437 37.7589 14.4362C38.0156 15.3986 38.2722 16.3289 38.4005 17.3234C38.4647 17.8688 38.5609 18.4142 38.593 18.9595C38.6251 19.3445 38.6572 19.6974 38.6572 20.0823C38.6572 20.6598 38.6572 21.2372 38.6572 21.8147C38.6251 22.1355 38.6251 22.4563 38.593 22.8092ZM39.3629 27.0759C39.3629 27.0438 39.395 27.0438 39.395 27.0117C40.197 25.4398 40.8386 23.8037 41.2557 22.0713C41.384 21.4939 41.5123 20.9164 41.6406 20.339C41.7048 19.9861 41.769 19.6332 41.801 19.2803C41.8331 18.9595 41.8973 18.6387 41.9294 18.3179C41.9615 18.0613 41.9615 17.8046 41.9935 17.548C42.0256 17.1309 42.0256 16.7139 42.0256 16.2968C42.0256 16.2327 41.9614 16.1364 41.8973 16.0723C41.8331 16.0081 41.7048 16.0081 41.6086 16.0402C41.4802 16.1044 41.4482 16.2006 41.4482 16.3289C41.4482 17.0347 41.4161 17.7405 41.3519 18.4142C41.3198 18.8312 41.2878 19.2482 41.1915 19.6653C41.0953 20.2427 40.999 20.7881 40.8707 21.3335C40.6462 22.4242 40.2933 23.5149 39.8762 24.5415C39.5875 25.2473 39.2667 25.921 38.978 26.5947C38.978 26.6267 38.9459 26.6909 38.978 26.6909C39.1063 26.8192 39.2346 26.9475 39.3629 27.0759ZM34.4226 34.2298C33.9093 34.9997 33.3318 35.7055 32.6902 36.3792C32.209 36.8925 31.7278 37.4058 31.2145 37.8549C30.7333 38.304 30.2521 38.7211 29.7388 39.106C29.0972 39.5872 28.4235 40.0363 27.7819 40.4855C27.6857 40.5496 27.6215 40.6459 27.6536 40.7742C27.6857 40.9988 27.9102 41.0629 28.1027 40.9346C29.001 40.3892 29.8351 39.7797 30.6371 39.106C31.2145 38.6248 31.7599 38.1115 32.2732 37.5982C32.8506 36.9887 33.396 36.3792 33.9413 35.7376C34.3584 35.2564 34.7113 34.7431 35.0962 34.1977C34.9679 34.1656 34.9038 34.1336 34.8075 34.0694C34.583 33.9732 34.583 33.9732 34.4226 34.2298ZM43.6938 20.8202C43.5334 20.7881 43.4051 20.8523 43.3409 21.0127C42.9239 22.1034 42.4427 23.13 41.8652 24.1565C41.2236 25.3114 40.4858 26.4022 39.6517 27.4287C39.6196 27.4608 39.6196 27.525 39.6517 27.5571C39.7158 27.7175 39.78 27.8458 39.8441 28.0062C39.8762 28.0062 39.8762 27.9741 39.8762 27.9741C40.197 27.5571 40.5499 27.14 40.8707 26.723C41.9294 25.2473 42.8276 23.6753 43.5334 22.0072C43.6296 21.7505 43.7259 21.4939 43.8221 21.2372C43.9184 21.0127 43.8221 20.8523 43.6938 20.8202ZM36.4115 9.20708C36.5078 9.72036 37.0852 9.97701 37.5023 9.72036C37.7589 9.55996 37.8552 9.30332 37.8552 9.01459C37.8872 8.62963 37.8552 8.24466 37.791 7.89178C37.6948 7.44265 37.5664 7.02561 37.3419 6.64064C37.0852 6.96145 36.6682 7.79554 36.5078 8.24466C36.3795 8.56547 36.3153 8.88627 36.4115 9.20708ZM33.4601 8.50131C33.6847 8.75795 33.9093 9.01459 34.1659 9.23916C34.583 9.59204 35.0321 9.78452 35.5774 9.72036C35.8341 9.68828 36.1228 9.4958 36.187 9.27124C36.2832 8.91835 36.0907 8.56547 35.7058 8.43715C35.385 8.34091 35.0642 8.30883 34.7434 8.30883C34.2942 8.30883 33.8451 8.37299 33.3639 8.40507C33.4281 8.43715 33.4281 8.46923 33.4601 8.50131ZM32.3052 4.94038C31.6316 4.7479 30.9579 4.7479 30.2521 4.7479C30.2842 4.81206 30.2842 4.84414 30.3163 4.9083C30.5087 5.22911 30.7333 5.54991 31.022 5.80655C31.407 6.15944 31.824 6.35192 32.3373 6.31984C32.594 6.28776 32.7865 6.19152 32.9148 5.93488C33.0431 5.71031 32.9789 5.48575 32.8506 5.26119C32.7223 5.0687 32.5298 5.00454 32.3052 4.94038ZM34.2621 6.76897C33.9734 6.64064 33.6847 6.57648 33.396 6.5444C32.8827 6.48024 32.4015 6.51232 31.8882 6.5444C31.8882 6.57648 31.9203 6.60856 31.9203 6.64064C32.1128 6.96145 32.3373 7.25017 32.6261 7.50681C33.011 7.8597 33.4601 8.08426 33.9734 8.0201C34.198 7.98802 34.3905 7.92386 34.5188 7.73138C34.7754 7.37849 34.6471 6.92937 34.2621 6.76897ZM41.769 11.4848C41.801 11.7414 41.9615 11.9339 42.186 12.0302C42.4427 12.1264 42.6672 12.0622 42.8276 11.8698C42.9559 11.7414 43.0522 11.5489 43.1163 11.3885C43.373 10.8111 43.4371 10.2016 43.4051 9.59204C43.4051 9.4958 43.373 9.39956 43.373 9.27124C42.8597 9.68828 42.3785 10.0732 42.0256 10.6186C41.8331 10.8753 41.7048 11.1319 41.769 11.4848ZM34.1017 6.25568C34.4867 6.15944 34.6471 5.87071 34.615 5.54991C34.583 5.03662 34.4546 4.55542 34.198 4.13837C34.0697 3.91381 33.9093 3.68925 33.7489 3.46468C33.7489 3.46468 33.7168 3.46468 33.7168 3.49676C33.6847 3.52884 33.6847 3.59301 33.6526 3.62509C33.4922 4.07421 33.3318 4.55542 33.2677 5.03662C33.2356 5.29327 33.2356 5.54991 33.3318 5.80655C33.4601 6.09528 33.813 6.31984 34.1017 6.25568ZM31.824 4.45918C32.209 4.81206 32.7865 4.65166 32.9148 4.13837C32.9789 3.94589 32.9148 3.72133 32.8185 3.56093C32.594 3.04764 32.2411 2.63059 31.824 2.27771C31.6957 2.18147 31.5674 2.08523 31.407 1.9569C31.3749 2.59851 31.3428 3.17596 31.4712 3.75341C31.5674 4.01005 31.6316 4.26669 31.824 4.45918ZM41.1915 10.1695C40.6462 9.84868 40.0045 9.68828 39.395 9.55996C39.395 9.59204 39.395 9.62412 39.395 9.6562C39.5554 10.1374 39.7479 10.6186 40.1008 10.9715C40.3574 11.2602 40.6782 11.4206 41.0953 11.4206C41.4802 11.4206 41.769 11.0357 41.6406 10.6507C41.5765 10.4261 41.4161 10.2978 41.1915 10.1695ZM39.6837 6.31984C39.1384 5.83863 38.4968 5.61407 37.8231 5.38951C37.8231 5.42159 37.8231 5.45367 37.8231 5.48575C37.9193 5.96696 38.0476 6.41608 38.3043 6.80105C38.4968 7.08977 38.7534 7.31433 39.1063 7.41057C39.5233 7.5389 39.8762 7.34641 39.9404 6.96145C40.0045 6.67272 39.8762 6.48024 39.6837 6.31984ZM40.4216 8.21258C40.0045 7.92386 39.5233 7.76346 39.0421 7.60306C38.9138 7.57098 38.7855 7.5389 38.6572 7.50681C38.7534 8.0201 38.9138 8.50131 39.2346 8.88627C39.4913 9.23916 39.8441 9.46372 40.2933 9.46372C40.6782 9.46372 40.9349 9.11084 40.8386 8.72587C40.7745 8.46923 40.6141 8.34091 40.4216 8.21258ZM35.7379 7.82762C36.0266 7.76346 36.187 7.50681 36.187 7.18601C36.187 6.73689 36.0907 6.31984 35.9303 5.90279C35.802 5.61407 35.6737 5.35743 35.4812 5.10078C35.4812 5.13286 35.4491 5.13286 35.4491 5.16495C35.2246 5.67823 35 6.2236 34.9358 6.76897C34.9038 7.02561 34.9038 7.28225 35.0321 7.50681C35.1604 7.76346 35.4812 7.92386 35.7379 7.82762ZM39.8121 5.96696C40.1649 5.99904 40.4537 5.71031 40.4537 5.32535C40.4537 4.84414 40.3253 4.36294 40.1008 3.94589C40.0045 3.72133 39.8762 3.52884 39.7479 3.33636C39.7158 3.33636 39.7158 3.33636 39.6837 3.33636C39.5554 3.72133 39.395 4.07421 39.2988 4.45918C39.2025 4.7479 39.1705 5.0687 39.2346 5.38951C39.2667 5.71031 39.5233 5.96696 39.8121 5.96696ZM40.967 7.89178C41.2236 7.79554 41.3519 7.60306 41.4161 7.37849C41.5444 6.92937 41.5444 6.44816 41.4482 5.99904C41.4161 5.77447 41.3519 5.58199 41.2878 5.32535C41.2557 5.35743 41.2236 5.35743 41.2236 5.35743C40.9349 5.67823 40.6782 6.03112 40.4537 6.41608C40.2933 6.7048 40.1649 6.99353 40.197 7.31433C40.197 7.73138 40.6141 8.0201 40.967 7.89178ZM36.8927 13.2171C37.1173 13.3454 37.3739 13.3775 37.6306 13.3454C38.0156 13.2813 38.2401 12.8963 38.0797 12.5755C37.9835 12.351 37.7589 12.2547 37.5344 12.1906C37.1815 12.0622 36.8286 12.0302 36.4757 11.9981C36.2511 11.9981 36.0587 11.9981 35.802 11.9981C36.0587 12.5114 36.3795 12.9605 36.8927 13.2171ZM28.7443 3.20804C28.9047 3.49676 29.1293 3.68925 29.3538 3.88173C29.7388 4.20253 30.1238 4.39502 30.6371 4.33085C30.9258 4.29877 31.1504 4.10629 31.1824 3.84965C31.2145 3.59301 31.0862 3.33636 30.8295 3.24012C30.6371 3.17596 30.4446 3.14388 30.2521 3.1118C29.7709 3.07972 29.2897 3.14388 28.7443 3.20804ZM41.0953 9.27124C41.0953 9.6562 41.5444 9.94493 41.8652 9.8166C42.0898 9.72036 42.186 9.55996 42.2502 9.3354C42.3143 9.11084 42.3464 8.88627 42.3785 8.66171C42.4427 8.21258 42.3785 7.79554 42.2502 7.34641C41.8331 7.73138 41.5123 8.14842 41.2557 8.62963C41.1594 8.82211 41.0953 9.01459 41.0953 9.27124ZM29.6426 2.59851C29.8992 2.9514 30.4446 2.98348 30.6371 2.59851C30.7654 2.37395 30.7333 2.18147 30.605 1.98899C30.3163 1.50778 29.9313 1.12281 29.4501 0.834091C29.3859 0.80201 29.2897 0.737849 29.1934 0.705769C29.1934 0.737849 29.1934 0.76993 29.1934 0.76993C29.2255 1.12281 29.2576 1.44362 29.3218 1.7965C29.3859 2.08523 29.4822 2.34187 29.6426 2.59851ZM38.0797 9.68828C38.0476 9.68828 38.0476 9.68828 38.0156 9.68828C37.6948 10.0412 37.4381 10.4261 37.2456 10.8432C37.1494 11.0677 37.0531 11.2923 37.0852 11.5489C37.1173 11.8056 37.3098 12.0302 37.5344 12.0622C37.8231 12.0943 38.0476 11.966 38.1439 11.7093C38.208 11.5489 38.2401 11.3565 38.2401 11.164C38.2401 10.9394 38.2401 10.6828 38.208 10.4582C38.2401 10.2016 38.1439 9.94493 38.0797 9.68828ZM41.9614 14.372C41.7369 14.1154 41.4482 13.955 41.1594 13.8267C40.9028 13.6983 40.6462 13.6021 40.3574 13.4738C40.3574 13.5379 40.3574 13.57 40.3574 13.6021C40.4216 13.9871 40.5178 14.3399 40.7103 14.6607C40.8707 14.9174 41.0953 15.142 41.4161 15.2382C41.6727 15.3344 41.9294 15.2703 42.0577 15.0457C42.186 14.8211 42.1539 14.5966 41.9614 14.372ZM38.593 4.10629C38.1118 3.81757 37.5664 3.68925 37.0211 3.56093C37.0211 3.59301 37.0211 3.59301 37.0211 3.59301C37.0211 3.62509 37.0211 3.62509 37.0211 3.65717C37.1494 3.91381 37.2456 4.20253 37.374 4.45918C37.5985 4.81206 37.8872 5.0687 38.3364 5.16495C38.5609 5.19703 38.7855 5.10078 38.8817 4.94038C38.978 4.77998 38.978 4.52334 38.8496 4.36294C38.7855 4.26669 38.6892 4.17045 38.593 4.10629ZM42.5389 13.9871C42.7314 13.7625 42.8597 13.4738 42.9239 13.185C43.0201 12.8642 43.0843 12.5434 43.0522 12.1585C42.571 12.4472 42.0898 12.7359 41.769 13.2171C41.6406 13.3775 41.6086 13.57 41.6406 13.7625C41.7048 13.9871 41.8331 14.1154 42.0577 14.1475C42.2502 14.2116 42.4106 14.1154 42.5389 13.9871ZM38.6251 3.75341C38.8817 3.68925 39.0742 3.4326 39.0101 3.1118C38.978 2.85516 38.8817 2.63059 38.7855 2.37395C38.6572 2.05315 38.4647 1.76442 38.176 1.50778C38.1439 1.57194 38.1439 1.60402 38.1118 1.6361C38.0476 1.86066 37.9835 2.11731 37.9193 2.37395C37.8552 2.66267 37.8231 2.98348 37.9193 3.30428C38.0476 3.62509 38.3043 3.78549 38.6251 3.75341ZM45.0412 17.7725C44.7524 18.0933 44.8808 18.5746 45.2657 18.6387C45.4261 18.6708 45.5865 18.6066 45.7149 18.5104C46.1319 18.2217 46.4206 17.8367 46.6452 17.3876C46.6773 17.3234 46.7094 17.2272 46.7414 17.1309C46.2923 17.1951 45.9073 17.2913 45.5224 17.4517C45.3299 17.5159 45.1695 17.6442 45.0412 17.7725ZM27.2365 1.82858V1.86066C27.3328 1.9569 27.3969 2.08523 27.4932 2.18147C27.8461 2.56643 28.231 2.85516 28.7764 2.791C29.033 2.75892 29.2255 2.59851 29.2576 2.37395C29.2897 2.21355 29.1934 1.9569 28.9368 1.86066C28.6802 1.76442 28.4235 1.76442 28.1669 1.76442C27.8461 1.76442 27.5573 1.7965 27.2365 1.82858ZM35.1925 10.2016C35.1283 10.2016 35.0321 10.2016 34.9358 10.2336C35.0962 10.5545 35.4812 10.9715 35.8341 11.1319C36.0587 11.2602 36.2832 11.2923 36.5399 11.2602C36.8286 11.1961 36.989 10.9394 36.9248 10.6507C36.8607 10.4582 36.7003 10.362 36.5078 10.2978C36.0907 10.1374 35.6416 10.1695 35.1925 10.2016ZM44.6241 14.372C44.7204 14.5003 44.8808 14.5645 45.0412 14.5324C45.3299 14.5003 45.5224 14.2116 45.4261 13.9229C45.2657 13.3775 44.8808 12.9926 44.4958 12.5434C44.3675 12.8963 44.3033 13.2492 44.3033 13.6021C44.3354 13.9229 44.4316 14.1795 44.6241 14.372ZM44.3033 17.6121C44.4637 17.7405 44.6241 17.8046 44.8166 17.7405C45.0732 17.6442 45.2016 17.3876 45.0733 17.0989C44.8487 16.5856 44.4316 16.2327 44.0146 15.8798C43.9504 16.2006 43.8863 16.5214 43.9504 16.8101C43.9825 17.1309 44.0788 17.4197 44.3033 17.6121ZM44.8166 16.2006C45.1695 16.2327 45.3941 15.9119 45.2978 15.5911C45.1053 15.0457 44.7204 14.6607 44.3354 14.2758C44.3354 14.3079 44.3033 14.3079 44.3033 14.3399C44.2071 14.6287 44.175 14.9174 44.175 15.2382C44.175 15.4628 44.2392 15.6873 44.3675 15.8798C44.4637 16.0402 44.592 16.1685 44.8166 16.2006ZM27.8782 1.41154C28.1669 1.6361 28.5839 1.53986 28.6802 1.18698C28.7443 0.962412 28.6481 0.76993 28.4556 0.641608C28.0706 0.288724 27.6215 0.0962412 27.0441 0C27.1082 0.192482 27.1724 0.352885 27.2686 0.545367C27.429 0.866171 27.5894 1.15489 27.8782 1.41154ZM45.6828 12.6397C45.5224 12.8322 45.3941 12.9926 45.362 13.2492C45.3299 13.57 45.6186 13.8587 45.9394 13.7625C46.1319 13.6983 46.2281 13.5379 46.3244 13.3775C46.4527 13.0888 46.5169 12.768 46.5169 12.4793C46.5169 12.3189 46.5169 12.1585 46.4848 11.9339C46.1961 12.1264 45.9073 12.351 45.6828 12.6397ZM36.4115 2.66267C36.5719 2.9514 36.8286 3.17596 37.1815 3.20804C37.374 3.24012 37.5344 3.17596 37.6306 3.04764C37.7589 2.88724 37.7589 2.69475 37.6306 2.56643C37.5344 2.43811 37.374 2.30979 37.2136 2.24563C36.8607 2.05315 36.4757 1.9569 36.0587 1.89274C36.0587 1.92482 36.0587 1.9569 36.0587 1.98899C36.2191 2.21355 36.2832 2.43811 36.4115 2.66267ZM45.4261 14.5966C45.2016 14.8853 45.2978 15.3024 45.6828 15.3665C45.8753 15.3986 46.0357 15.3024 46.164 15.174C46.3885 14.9495 46.5489 14.6607 46.6452 14.372C46.7094 14.1795 46.7414 14.0191 46.8056 13.8267L46.7735 13.7946C46.581 13.8587 46.4206 13.9229 46.2281 14.0191C45.9394 14.1795 45.6507 14.3079 45.4261 14.5966ZM40.1649 11.6452C40.2291 11.8056 40.2612 11.9339 40.2933 12.0943C40.3574 12.2226 40.3895 12.351 40.4858 12.4793C40.6462 12.7038 40.8066 12.9284 41.0953 13.0246C41.2236 13.0888 41.384 13.0888 41.5123 13.0567C41.801 12.9605 41.8973 12.5434 41.6406 12.3189C41.3519 12.0622 40.999 11.9339 40.6462 11.8056C40.4858 11.7414 40.3253 11.7093 40.1649 11.6452ZM45.3299 16.1685C45.2016 16.3289 45.1695 16.5856 45.2978 16.746C45.4582 16.9705 45.7469 17.0026 45.9715 16.7781C46.2281 16.5214 46.4206 16.2327 46.581 15.8798C46.6452 15.7515 46.6773 15.6232 46.7093 15.4628L46.6773 15.4307C46.4848 15.4948 46.2602 15.5911 46.0677 15.6552C45.779 15.7836 45.5224 15.944 45.3299 16.1685ZM36.8286 1.76442C36.9569 1.92482 37.1815 2.02107 37.374 1.92482C37.6306 1.82858 37.7268 1.57194 37.5985 1.28322C37.4702 1.02657 37.3098 0.76993 37.0852 0.577447C36.9248 0.449126 36.7644 0.320804 36.604 0.224563C36.5719 0.224563 36.5719 0.256643 36.5399 0.256643C36.5719 0.545367 36.5719 0.80201 36.604 1.09073C36.6361 1.3153 36.7003 1.57194 36.8286 1.76442ZM43.2767 18.7991C43.2447 18.8633 43.2447 18.8954 43.2126 18.9274C43.1805 19.0878 43.1163 19.2803 43.0843 19.4407C43.0201 19.7615 43.0843 20.0823 43.3088 20.339C43.4372 20.4994 43.6617 20.5315 43.8221 20.4673C43.9825 20.3711 44.0788 20.1786 44.0146 19.9861C43.8863 19.5049 43.5976 19.152 43.2767 18.7991ZM45.3299 12.7038C45.5545 12.6076 45.6507 12.351 45.5224 12.0943C45.3299 11.6773 44.977 11.3885 44.6241 11.0998C44.592 11.1319 44.592 11.164 44.592 11.1961C44.56 11.4206 44.5279 11.6452 44.56 11.8377C44.56 12.0943 44.6562 12.3189 44.8166 12.5114C44.9449 12.7038 45.1695 12.768 45.3299 12.7038ZM45.3299 11.4527C45.3299 11.6452 45.4903 11.8056 45.6828 11.8056C45.8753 11.8377 46.0357 11.7093 46.0998 11.5169C46.2602 11.0677 46.2602 10.6507 46.1319 10.1695C45.8432 10.4582 45.5865 10.7149 45.4261 11.0677C45.362 11.164 45.3299 11.3244 45.3299 11.4527ZM44.175 19.2162C43.9825 19.3445 43.9184 19.569 44.0467 19.7615C44.1429 19.954 44.3675 20.0182 44.56 19.9219C44.977 19.6974 45.2978 19.3766 45.5224 18.9274C45.2657 18.9595 45.0412 18.9595 44.8487 18.9916C44.592 19.0237 44.3675 19.0558 44.175 19.2162ZM44.9449 10.9715C45.2016 11.1319 45.4582 10.9073 45.4261 10.6828C45.4261 10.5865 45.3941 10.5224 45.362 10.4582C45.2016 10.1374 44.9128 9.91285 44.6241 9.6562C44.5279 10.0412 44.4958 10.3941 44.7204 10.7469C44.7524 10.8432 44.8487 10.9073 44.9449 10.9715ZM44.4637 18.7991C44.56 18.6708 44.56 18.5104 44.4637 18.3821C44.3033 18.0613 44.0467 17.8046 43.758 17.5159C43.7259 17.6763 43.6938 17.8367 43.6617 17.965C43.6296 18.2538 43.6938 18.5425 43.8863 18.767C44.0788 18.9595 44.3354 18.9916 44.4637 18.7991ZM45.4261 10.1695C45.6186 10.2016 45.779 10.1053 45.8111 9.91285C45.8432 9.78452 45.8432 9.62412 45.8111 9.46372C45.779 9.20708 45.6828 8.98251 45.5224 8.72587C45.3299 9.07875 45.1374 9.43164 45.1695 9.8166C45.1695 9.97701 45.2978 10.1374 45.4261 10.1695Z" fill="#E9B412"/>
<path d="M28.712 23.8364C28.1345 23.8364 27.5571 23.8364 26.9475 23.8364C26.9155 23.8364 26.8834 23.8364 26.8513 23.8364V28.1351C26.8513 28.1351 26.8513 28.1351 26.8192 28.1351C26.7871 28.1031 26.7871 28.071 26.7551 28.071C26.3701 27.3973 25.9851 26.7236 25.6002 26.082C25.1831 25.3762 24.7661 24.6384 24.3811 23.9326C24.349 23.8684 24.3169 23.8364 24.2528 23.8364C23.8037 23.8364 23.3225 23.8364 22.8733 23.8364C22.7771 23.8364 22.745 23.8684 22.745 23.9647C22.745 26.7557 22.745 29.5467 22.745 32.3697C22.745 32.466 22.7771 32.4981 22.8733 32.4981C23.4508 32.4981 24.0603 32.4981 24.6378 32.4981C24.6698 32.4981 24.7019 32.4981 24.734 32.4981V28.1672C25.2152 28.9692 25.6643 29.7712 26.1134 30.5732C26.4663 31.1828 26.8192 31.7602 27.14 32.3697C27.1721 32.4339 27.2363 32.466 27.3004 32.466C27.7495 32.466 28.1987 32.466 28.6478 32.466C28.6799 32.466 28.712 32.466 28.7761 32.466V32.4018C28.7761 29.5787 28.7761 26.7878 28.7761 23.9647C28.8082 23.8364 28.7761 23.8364 28.712 23.8364ZM24.734 17.4844C24.7661 17.5486 24.7982 17.5807 24.8302 17.6128C25.2473 18.3506 25.6643 19.0564 26.0814 19.7942C26.4343 20.4038 26.7871 21.0133 27.14 21.6228C27.1721 21.687 27.2363 21.719 27.3004 21.719C27.7495 21.719 28.2308 21.719 28.6799 21.719C28.712 21.719 28.744 21.719 28.7761 21.719V13.1536H26.8192V17.4524C26.8192 17.4524 26.8192 17.4524 26.7871 17.4524C26.7551 17.4203 26.7551 17.3882 26.723 17.3561C26.6267 17.1636 26.4984 16.9711 26.4022 16.7787C26.0172 16.105 25.6322 15.4313 25.2473 14.7576C24.9586 14.2443 24.6698 13.731 24.349 13.2177C24.3169 13.1536 24.2849 13.1215 24.1886 13.1215C23.7395 13.1215 23.2583 13.1215 22.8092 13.1215C22.7771 13.1215 22.745 13.1215 22.7129 13.1215V21.719H24.6698V17.4844H24.734ZM5.58199 16.8107C5.32535 16.5541 5.00454 16.3295 4.68374 16.2012C4.26669 16.0087 3.81757 15.8483 3.40052 15.6559C3.17596 15.5596 2.9514 15.4313 2.79099 15.2709C2.43811 14.9822 2.40603 14.5651 2.50227 14.1481C2.56643 13.8914 2.72683 13.731 2.9514 13.6348C3.17596 13.5385 3.40052 13.5385 3.62509 13.5706C3.88173 13.6027 4.10629 13.6989 4.29877 13.8914C4.45918 14.0518 4.55542 14.2122 4.71582 14.4047C5.19702 14.0198 5.71031 13.6348 6.2236 13.2498C6.19152 13.2177 6.19152 13.1857 6.15944 13.1857C5.80655 12.5761 5.26119 12.1912 4.61958 11.9666C4.07421 11.7741 3.49676 11.71 2.88724 11.7741C2.50227 11.8062 2.14939 11.8704 1.7965 11.9987C1.41154 12.1591 1.05865 12.3836 0.80201 12.7365C0.417045 13.2177 0.256643 13.7952 0.256643 14.4368C0.256643 14.7255 0.288724 15.0142 0.320804 15.303C0.417045 15.9446 0.705769 16.4899 1.21906 16.907C1.60402 17.2278 2.02107 17.4524 2.50227 17.6448C2.88724 17.8052 3.30428 17.9336 3.65717 18.1902C3.81757 18.3185 3.97797 18.4468 4.04213 18.6714C4.10629 18.8639 4.10629 19.0564 4.10629 19.2489C4.07421 19.5055 3.94589 19.7301 3.72133 19.8584C3.49676 19.9867 3.24012 20.0188 2.9514 20.0188C2.53435 19.9867 2.18147 19.8263 1.86066 19.5055C1.76442 19.4093 1.66818 19.2809 1.57194 19.1526C1.05865 19.5376 0.577447 19.9225 0.0641604 20.2754C0.0641604 20.3075 0.096241 20.3396 0.096241 20.3396C0.320804 20.5642 0.545367 20.8208 0.80201 21.0454C1.34738 21.4945 1.98899 21.687 2.66267 21.7511C2.9514 21.7832 3.20804 21.7832 3.49676 21.7832C3.91381 21.7832 4.29877 21.719 4.68374 21.5586C5.26119 21.3341 5.71031 20.9491 5.99903 20.3717C6.2236 19.9225 6.31984 19.4413 6.31984 18.9601C6.31984 18.6393 6.28776 18.2864 6.2236 17.9656C6.12736 17.5165 5.90279 17.1315 5.58199 16.8107ZM8.43715 21.7511C8.50131 21.7511 8.53339 21.719 8.53339 21.6549C8.62963 21.2378 8.72587 20.7887 8.82211 20.3717C8.82211 20.3396 8.88627 20.3075 8.91835 20.3075C9.52788 20.3075 10.1374 20.3075 10.779 20.3075C10.8111 20.3075 10.8432 20.3396 10.8753 20.3717C10.9715 20.7887 11.0677 21.2378 11.164 21.6549C11.1961 21.7511 11.2281 21.7511 11.2923 21.7511C11.8698 21.7511 12.4793 21.7511 13.0567 21.7511H13.3775C13.2813 21.4624 13.2171 21.2058 13.153 20.917C12.9284 20.1792 12.7359 19.4413 12.5114 18.7035C12.2226 17.709 11.966 16.7466 11.6773 15.7521C11.4206 14.8859 11.1961 14.0518 10.9394 13.1857C10.9073 13.1215 10.8753 13.0894 10.8111 13.0894C10.5224 13.0894 10.2016 13.0894 9.91284 13.0894H8.85419C8.0201 15.9767 7.21809 18.8318 6.384 21.719C6.41608 21.719 6.44816 21.719 6.48024 21.719C7.12185 21.7511 7.76346 21.7511 8.43715 21.7511ZM9.84868 16.1371C10.0091 16.907 10.1695 17.709 10.3299 18.511H9.3354C9.4958 17.7411 9.6562 16.9391 9.84868 16.1371ZM35.3847 17.292C35.3847 17.2599 35.3847 17.2278 35.3847 17.1957H32.4974V18.9281H33.4599C33.4278 19.2168 33.3957 19.5055 33.2674 19.7621C33.107 20.115 32.6258 20.2113 32.305 20.0509C32.0804 19.9225 31.9521 19.7301 31.8879 19.4734C31.7596 19.0564 31.7275 18.6393 31.7275 18.2223C31.7275 17.6128 31.7275 17.0353 31.7596 16.4258C31.7596 16.105 31.7917 15.7521 31.8879 15.4634C31.9842 15.1105 32.1446 14.8218 32.5937 14.7576C32.8503 14.7255 33.0428 14.8218 33.2032 15.0142C33.3636 15.2067 33.3957 15.4634 33.4278 15.6879C33.4278 15.7842 33.4599 15.8163 33.5561 15.8163C33.7807 15.8163 33.9731 15.8163 34.1977 15.8163H35.4488C35.4488 15.7842 35.4488 15.7521 35.4488 15.72C35.3526 15.2388 35.2564 14.7576 34.9997 14.3406C34.6789 13.7952 34.2619 13.3781 33.6523 13.1857C33.107 12.9932 32.5616 12.9932 32.0162 13.0894C31.1501 13.2498 30.5405 13.7631 30.1556 14.5651C29.8348 15.2067 29.7065 15.9125 29.7065 16.6503C29.7065 17.2278 29.7065 17.8052 29.7065 18.3827C29.7065 18.6393 29.7385 18.896 29.7706 19.1847C29.8348 19.6338 29.9631 20.0509 30.1556 20.4679C30.4764 21.1095 30.9897 21.5586 31.6634 21.7832C32.0483 21.9115 32.4333 21.9757 32.8183 21.9436C33.0749 21.9115 33.2995 21.8794 33.524 21.8153C34.1977 21.6228 34.6468 21.1737 34.9676 20.5962C35.2884 19.9867 35.3847 19.313 35.4168 18.6393C35.3847 18.126 35.3847 17.709 35.3847 17.292ZM5.74239 27.9106H2.85516V29.4504H3.81757C3.81757 29.5787 3.78549 29.675 3.78549 29.7712C3.75341 29.9958 3.72133 30.1883 3.65717 30.4128C3.49676 30.9261 2.91932 30.9582 2.59851 30.7657C2.37395 30.6374 2.27771 30.4128 2.21355 30.1562C2.08523 29.7392 2.08523 29.3221 2.08523 28.9051C2.08523 28.1672 2.05315 27.4614 2.11731 26.7236C2.14939 26.4349 2.21355 26.1141 2.34187 25.8574C2.56643 25.4404 3.17596 25.3762 3.46468 25.697C3.62509 25.8895 3.68925 26.1461 3.72133 26.4028C3.72133 26.5311 3.75341 26.5311 3.88173 26.5311C4.45918 26.5311 5.03662 26.5311 5.61407 26.5311H5.74239C5.74239 26.467 5.71031 26.4028 5.71031 26.3707C5.64615 25.8895 5.51783 25.4404 5.26119 25.0233C5.00454 24.5421 4.61958 24.1892 4.10629 23.9647C3.59301 23.7401 3.04764 23.708 2.50227 23.7722C2.14939 23.8364 1.7965 23.9326 1.4757 24.1251C0.930332 24.478 0.577447 24.9592 0.352885 25.5687C0.0962413 26.2424 0.0320804 26.9802 0 27.686C0 28.1031 0.0320805 28.5201 0.0320805 28.9692C0.0320805 29.3542 0.0641608 29.7392 0.160402 30.1241C0.288724 30.7016 0.513286 31.2469 0.930332 31.6961C1.41154 32.2414 2.02106 32.4981 2.72683 32.5622C3.01556 32.5943 3.33636 32.5622 3.62509 32.5301C4.36294 32.4018 4.9083 32.0169 5.26119 31.3753C5.64615 30.7016 5.77447 29.9958 5.80655 29.2259C5.83863 28.8409 5.80655 28.4239 5.80655 28.0389V27.9106H5.74239ZM13.4417 16.7466C13.6663 17.4844 13.8587 18.2223 14.0833 18.9922C14.3399 19.8905 14.5645 20.7566 14.8211 21.6549C14.8532 21.719 14.8532 21.7511 14.9174 21.7511C15.4948 21.7511 16.0723 21.7511 16.6497 21.7511C16.7139 21.7511 16.746 21.7511 16.746 21.6549C16.8422 21.302 16.9385 20.9812 17.0347 20.6283C17.2593 19.8905 17.4517 19.1205 17.6763 18.3827C17.9329 17.4844 18.1575 16.6183 18.4142 15.72C18.6387 14.8859 18.8954 14.0518 19.1199 13.2177C19.1199 13.1857 19.1199 13.1857 19.1199 13.1536H17.163C16.9385 13.1536 16.9385 13.1536 16.9064 13.3781C16.7139 14.2443 16.5214 15.0784 16.3289 15.9446C16.1685 16.6824 15.976 17.4524 15.8156 18.2223C15.7836 18.0298 15.7515 17.8694 15.7194 17.7411C15.559 17.0995 15.3986 16.4258 15.2703 15.7842C15.0778 14.9501 14.8853 14.116 14.7249 13.2819C14.7249 13.2177 14.6607 13.2177 14.5966 13.2177C14.2437 13.2177 13.8587 13.2177 13.5058 13.2177H12.4793C12.5434 13.4423 12.6076 13.6348 12.6718 13.8273C12.8642 14.7576 13.153 15.7521 13.4417 16.7466ZM34.5185 24.5421C33.9731 23.9647 33.2674 23.7401 32.4654 23.708C32.0804 23.676 31.6634 23.708 31.2784 23.8364C30.7972 23.9647 30.3801 24.2213 30.0593 24.6063C29.7065 25.0554 29.5781 25.5687 29.5781 26.1461C29.5781 26.4028 29.6102 26.6594 29.6423 26.9161C29.7385 27.4294 29.9631 27.8464 30.3481 28.1993C30.7009 28.5201 31.0859 28.7447 31.535 28.9051C31.8558 29.0334 32.1446 29.1617 32.4333 29.3221C32.8824 29.5467 32.9787 29.8675 32.8824 30.3166C32.8183 30.6053 32.5616 30.7978 32.2408 30.8299C31.7275 30.862 31.3426 30.6695 31.0218 30.2845C30.9576 30.2204 30.8934 30.1241 30.8293 30.06C30.3481 30.4128 29.8669 30.7978 29.3536 31.1507C29.4819 31.279 29.5781 31.4394 29.6744 31.5677C29.9952 31.9206 30.3481 32.1773 30.7651 32.3377C31.118 32.466 31.503 32.5301 31.92 32.5622C32.2729 32.5943 32.6258 32.5943 32.9466 32.5301C33.0428 32.5301 33.1711 32.5301 33.1711 32.3697C33.2032 32.0489 33.2995 31.7281 33.3636 31.4073C33.4599 30.894 33.5882 30.3808 33.6844 29.8675C33.7486 29.5146 33.909 29.2579 34.2298 29.0975C34.326 29.0655 34.3581 29.0013 34.3581 28.9051C34.3581 28.7767 34.4223 28.6484 34.4544 28.5201C34.4544 28.4239 34.5185 28.3276 34.4223 28.1993C34.1335 27.8785 33.7807 27.6539 33.3957 27.4935C33.0428 27.3331 32.6899 27.2048 32.337 27.0444C32.1446 26.9482 31.9521 26.8519 31.8238 26.6915C31.6313 26.499 31.5992 26.2424 31.6634 25.9857C31.7275 25.7291 31.8238 25.5687 32.0804 25.5045C32.4654 25.4083 32.8503 25.4725 33.1391 25.7612C33.2674 25.8895 33.3636 26.082 33.4919 26.2424C33.524 26.2103 33.5561 26.2103 33.5882 26.1782C34.0052 25.8574 34.4223 25.5366 34.8393 25.2158C34.9035 25.1517 34.9035 25.1196 34.8714 25.0554C34.7752 24.8629 34.6789 24.7025 34.5185 24.5421ZM19.6011 32.4339H21.6864V23.8364H19.6011V32.4339ZM21.6543 14.1481C20.7881 14.1802 20.0823 13.8273 19.569 13.0894V21.719H21.6543V14.1481ZM18.8633 31.1507C18.6066 30.2845 18.3821 29.4183 18.1254 28.5843C17.9009 27.8143 17.6763 27.0444 17.4517 26.2745C17.2272 25.5045 17.0026 24.7346 16.7781 23.9647C16.7781 23.9005 16.746 23.8684 16.6818 23.8684C16.0081 23.8684 15.3344 23.8684 14.6928 23.8684C13.8908 26.6274 13.1209 29.3863 12.3189 32.1773C11.9018 31.0544 11.4848 29.9316 11.0998 28.8409C11.2281 28.7447 11.3244 28.6805 11.4206 28.5843C11.5169 28.488 11.6131 28.3918 11.7093 28.2635C12.0622 27.7502 12.1585 27.1727 12.1906 26.5953C12.1906 26.3707 12.1585 26.1461 12.1264 25.9216C12.0622 25.4083 11.8377 24.9592 11.4848 24.6063C10.9715 24.1251 10.362 23.9005 9.68828 23.8684C8.66171 23.8364 7.63514 23.8684 6.60856 23.8684C6.57648 23.8684 6.5444 23.8684 6.51232 23.8684V32.466H8.59755V29.1938H9.175C9.55996 30.2845 9.91284 31.3752 10.2978 32.4339H13.57C13.8587 32.4339 14.1154 32.4339 14.4041 32.4339C14.4362 32.4339 14.5003 32.4018 14.5003 32.3697C14.5645 32.1131 14.5966 31.8565 14.6607 31.5998C14.6928 31.4073 14.757 31.1828 14.7891 30.9903C15.4307 30.9903 16.0723 30.9903 16.7139 30.9903C16.746 30.9903 16.7781 31.0224 16.7781 31.0544C16.8101 31.2469 16.8422 31.4073 16.9064 31.5998C16.9705 31.8885 17.0347 32.1773 17.0989 32.466H19.2803C19.2803 32.4339 19.2803 32.4018 19.2803 32.3697C19.1199 31.9527 18.9916 31.5357 18.8633 31.1507ZM10.0412 26.884C9.97701 27.2048 9.72036 27.3652 9.43164 27.4294C9.36748 27.4294 9.30332 27.4614 9.27124 27.4614C9.04667 27.4614 8.79003 27.4614 8.53339 27.4614V25.5687C8.88627 25.5687 9.20708 25.5687 9.55996 25.6649C9.84868 25.7612 10.0412 26.0178 10.0732 26.3386C10.0732 26.5311 10.0732 26.6915 10.0412 26.884ZM15.2382 29.2259C15.3986 28.4239 15.559 27.6539 15.7194 26.8519H15.7515C15.9119 27.6539 16.0723 28.4239 16.2327 29.2259H15.2382Z" fill="#080808"/>
</svg>
