<svg xmlns="http://www.w3.org/2000/svg" viewBox="0 0 1200 480" role="img" aria-label="Creatinine and eGFR explained: how to read your kidney function test" font-family="system-ui, -apple-system, 'Segoe UI', Roboto, sans-serif">
  <title>Creatinine and eGFR: How to Read Your Kidney Function Test</title>
  <defs>
    <radialGradient id="orb-egfr" cx="50%" cy="50%" r="50%">
      <stop offset="0%" stop-color="#6B8E7F" stop-opacity="0.20"/>
      <stop offset="100%" stop-color="#6B8E7F" stop-opacity="0"/>
    </radialGradient>
  </defs>
  <rect width="1200" height="480" fill="#F5F3EE"/>
  <circle cx="1020" cy="150" r="320" fill="url(#orb-egfr)"/>

  <text x="90" y="172" font-size="22" font-weight="700" letter-spacing="3" fill="#6B8E7F">UNDERSTANDING YOUR BIOMARKERS</text>
  <text x="86" y="252" font-size="54" font-weight="800" fill="#2B3A3A">Creatinine and eGFR</text>
  <text x="90" y="304" font-size="26" fill="#6B7979">How to read your kidney function test</text>

  <!-- pill badges -->
  <rect x="90" y="344" width="180" height="42" rx="21" fill="#2B3A3A"/>
  <text x="180" y="371" text-anchor="middle" font-size="16" font-weight="700" fill="#F5F3EE">Creatinine</text>

  <rect x="284" y="344" width="140" height="42" rx="21" fill="#6B8E7F"/>
  <text x="354" y="371" text-anchor="middle" font-size="16" font-weight="700" fill="#F5F3EE">eGFR</text>

  <rect x="438" y="344" width="220" height="42" rx="21" fill="#E0A23E"/>
  <text x="548" y="371" text-anchor="middle" font-size="16" font-weight="700" fill="#2B3A3A">BP and Diabetes Link</text>

  <!-- decorative kidney-bean pair suggesting filtration -->
  <path d="M 1005 150 C 965 120, 970 210, 1005 230 C 1050 255, 1075 210, 1060 165 C 1050 135, 1025 130, 1005 150 Z" fill="#6B8E7F" opacity="0.28"/>
  <path d="M 1105 190 C 1075 168, 1078 236, 1105 252 C 1138 271, 1158 236, 1147 202 C 1140 180, 1121 176, 1105 190 Z" fill="#6B8E7F" opacity="0.18"/>
  <circle cx="1030" cy="180" r="6" fill="#2B3A3A" opacity="0.25"/>
  <circle cx="1120" cy="215" r="5" fill="#2B3A3A" opacity="0.2"/>
</svg>
