<svg xmlns="http://www.w3.org/2000/svg" viewBox="0 0 1200 480" role="img" aria-label="Sickle cell trait explained: what your AS result means before you start a family" font-family="system-ui, -apple-system, 'Segoe UI', Roboto, sans-serif">
  <title>Sickle Cell Trait: Why Testing Matters Before You Start a Family</title>
  <defs>
    <radialGradient id="orb-sct" cx="50%" cy="50%" r="50%">
      <stop offset="0%" stop-color="#6B8E7F" stop-opacity="0.20"/>
      <stop offset="100%" stop-color="#6B8E7F" stop-opacity="0"/>
    </radialGradient>
  </defs>

  <!-- Background -->
  <rect width="1200" height="480" fill="#F5F3EE"/>
  <circle cx="1030" cy="170" r="310" fill="url(#orb-sct)"/>

  <!-- Category label -->
  <text x="90" y="172" font-size="22" font-weight="700" letter-spacing="3" fill="#6B8E7F">UNDERSTANDING YOUR CONDITIONS</text>

  <!-- Main title -->
  <text x="86" y="258" font-size="60" font-weight="800" fill="#2B3A3A">Sickle Cell Trait</text>

  <!-- Subtitle -->
  <text x="90" y="308" font-size="26" fill="#6B7979">What an AS result means before you start a family</text>

  <!-- Pill badges -->
  <rect x="90" y="348" width="160" height="42" rx="21" fill="#2B3A3A"/>
  <text x="170" y="375" text-anchor="middle" font-size="16" font-weight="700" fill="#F5F3EE">AS Genotype</text>

  <rect x="264" y="348" width="190" height="42" rx="21" fill="#C9594F"/>
  <text x="359" y="375" text-anchor="middle" font-size="16" font-weight="700" fill="#F5F3EE">Trait ≠ Disease</text>

  <rect x="468" y="348" width="180" height="42" rx="21" fill="#6B8E7F"/>
  <text x="558" y="375" text-anchor="middle" font-size="16" font-weight="700" fill="#F5F3EE">1 in 4 Ghanaians</text>

  <rect x="662" y="348" width="210" height="42" rx="21" fill="#A8C5B8"/>
  <text x="767" y="375" text-anchor="middle" font-size="16" font-weight="700" fill="#2B3A3A">Family Planning</text>

  <!-- Decorative right: stylised red blood cells, round (normal) vs crescent (sickled) -->
  <circle cx="1000" cy="150" r="34" fill="#6B8E7F" opacity="0.28"/>
  <circle cx="1070" cy="130" r="22" fill="#6B8E7F" opacity="0.22"/>
  <path d="M 950 260 C 940 220, 990 200, 1010 230 C 1030 260, 1010 300, 970 300 C 950 300, 945 280, 950 260 Z" fill="#C9594F" opacity="0.30"/>
  <path d="M 1050 300 C 1042 270, 1080 256, 1096 280 C 1112 304, 1096 336, 1064 334 C 1048 333, 1046 316, 1050 300 Z" fill="#C9594F" opacity="0.22"/>
  <circle cx="1090" cy="200" r="16" fill="#2B3A3A" opacity="0.14"/>
</svg>
